<?xml version="1.0" encoding="iso-8859-1"?>
<!-- Generator: Adobe Illustrator 19.0.0, SVG Export Plug-In . SVG Version: 6.00 Build 0)  -->
<svg version="1.1" xmlns="http://www.w3.org/2000/svg" xmlns:xlink="http://www.w3.org/1999/xlink" x="0px" y="0px"
	 viewBox="0 0 106 118.871" style="enable-background:new 0 0 106 118.871;" xml:space="preserve">
<g id="Layer_1" style="display:none;">
	<g id="XMLID_1136_" style="display:inline;">
		<path id="XMLID_1138_" style="fill:#FF7500;" d="M106,85.345c0,2.45-1.518,5.444-3.648,6.654L56.76,117.963
			c-2.129,1.21-5.559,1.21-7.688,0L3.619,91.999C1.49,90.789,0,87.795,0,85.345V33.523c0-2.45,1.518-5.444,3.649-6.654l45.59-25.962
			c2.13-1.21,5.56-1.21,7.691,0l45.45,25.962c2.13,1.21,3.62,4.204,3.62,6.654V85.345z"/>
		<polygon id="XMLID_1137_" style="fill:#FFFFFF;" points="89.443,46.181 76.262,33 43.621,65.641 29.46,51.48 16.279,64.66 
			43.621,92.003 		"/>
	</g>
</g>
<g id="Layer_2">
	<g id="XMLID_620_">
		<path id="XMLID_1065_" style="fill:#00D6FF;" d="M106,85.345c0,2.45-1.375,5.444-3.505,6.654l-45.521,25.964
			c-2.129,1.21-5.523,1.21-7.653,0L3.744,91.999C1.615,90.789,0,87.795,0,85.345V33.523c0-2.45,1.661-5.444,3.791-6.654
			L49.453,0.908c2.13-1.21,5.596-1.21,7.726,0l45.325,25.962c2.13,1.21,3.495,4.204,3.495,6.654V85.345z"/>
		<polygon id="XMLID_1064_" style="fill:#FFFFFF;" points="92.45,43.181 79.269,30 46.628,62.641 32.467,48.48 19.286,61.66 
			46.628,89.003 		"/>
	</g>
</g>
<g id="Layer_3" style="display:none;">
	<g id="XMLID_434_" style="display:inline;">
		<path id="XMLID_441_" style="fill:#BEBEBE;" d="M106,85.345c0,2.45-1.661,5.444-3.791,6.654l-45.664,25.964
			c-2.129,1.21-5.595,1.21-7.724,0L3.494,91.999C1.365,90.789,0,87.795,0,85.345V33.523c0-2.45,1.375-5.444,3.506-6.654
			L49.025,0.908c2.13-1.21,5.525-1.21,7.655,0l45.575,25.962c2.13,1.21,3.745,4.204,3.745,6.654V85.345z"/>
		<polygon id="XMLID_435_" style="fill:#FFFFFF;" points="89.436,43.181 76.255,30 43.614,62.641 29.452,48.48 16.272,61.66 
			43.614,89.003 		"/>
	</g>
</g>
<g id="Layer_4" style="display:none;">
	<g id="XMLID_175_" style="display:inline;">
		<path id="XMLID_174_" style="fill:#FFFFFF;" d="M106,85.345c0,2.45-1.518,5.444-3.648,6.654L56.76,117.963
			c-2.129,1.21-5.559,1.21-7.688,0L3.619,91.999C1.49,90.789,0,87.795,0,85.345V33.523c0-2.45,1.518-5.444,3.649-6.654l45.59-25.962
			c2.13-1.21,5.56-1.21,7.691,0l45.45,25.962c2.13,1.21,3.62,4.204,3.62,6.654V85.345z"/>
		<polygon id="XMLID_171_" style="fill:#BEBEBE;" points="90,43.181 76.819,30 44.178,62.641 30.017,48.48 16.836,61.66 
			44.178,89.003 		"/>
	</g>
</g>
</svg>
